# This file uses centimeters as units for non-parametric coordinates.

mtllib house.mtl
g default
v -1.724287 9.909116 1.929322
v 2.488389 5.768434 1.897555
v -1.724287 9.909116 -11.030054
v 2.488389 5.768434 -11.044027
v -6.053754 5.728346 1.961089
v -6.053754 5.728346 -11.016082
vt -0.316036 -1.327754
vt 1.035748 -1.327754
vt -0.316036 2.327754
vt 1.035748 2.327754
vt -0.316036 -1.327754
vt 1.035748 -1.327754
vt 1.035748 2.327754
vt -0.316036 2.327754
vn 0.700986 0.713175 0.000000
vn 0.700986 0.713175 0.000000
vn 0.700986 0.713175 0.000000
vn 0.700987 0.713175 0.000000
vn -0.694646 0.719352 0.000000
vn -0.694646 0.719352 0.000000
vn -0.694646 0.719352 0.000000
vn -0.694646 0.719352 0.000000
s 1
g pPlane2
usemtl lambert5SG
f 1/1/1 2/2/2 3/3/3
f 3/3/3 2/2/2 4/4/4
s 2
f 5/5/5 1/6/6 6/8/7
f 6/8/7 1/6/6 3/7/8
g default
v -5.461922 0.889933 1.844489
v 1.971106 0.889933 1.844489
v -5.461922 6.220156 1.844489
v 1.971106 6.220156 1.844489
v -5.461922 6.220156 -11.052945
v 1.971106 6.220156 -11.052945
v -5.461922 0.889933 -11.052945
v 1.971106 0.889933 -11.052945
v -1.675307 0.889933 1.844489
v -1.752242 9.890834 1.844489
v -1.738736 9.722068 -11.052945
v -1.716872 0.889933 -11.052945
v -5.461922 6.220156 -5.465627
v -5.461922 0.889933 -5.610413
v -5.461922 6.220156 -2.540758
v -5.461923 0.889933 -2.528930
v -5.461922 4.290826 -5.543644
v -5.461923 4.293081 -2.535013
vt -1.278489 0.030837
vt 2.266327 0.030837
vt -1.278489 0.997063
vt 2.266327 0.997063
vt -0.344782 0.035406
vt 1.344782 0.035406
vt -0.344782 0.513474
vt 1.344782 0.513474
vt -0.344782 0.991542
vt 1.344782 0.991542
vt 5.811142 0.030837
vt 5.811142 0.997063
vt -4.823307 0.030837
vt -4.823307 0.997063
vt 0.653992 0.030837
vt 0.404037 0.991542
vt 0.661338 0.997063
vt 0.468467 0.035406
vt 0.473437 0.513474
vt -3.287651 0.997063
vt -3.327445 0.030837
vt -0.344782 0.715212
vt -2.454092 0.997063
vt -2.506261 0.030837
vt -0.344782 0.825960
vt -3.309093 0.476413
vt -2.482181 0.476822
vn 0.000000 0.000000 1.000000
vn -0.000000 0.000000 1.000000
vn -0.000000 0.000000 1.000000
vn -0.000000 0.000000 1.000000
vn -0.000000 0.000000 -1.000000
vn -0.000000 0.000000 -1.000000
vn -0.000000 0.000000 -1.000000
vn 0.000000 0.000000 -1.000000
vn 0.000000 -1.000000 0.000000
vn 0.000000 -1.000000 0.000000
vn 0.000000 -1.000000 0.000000
vn 0.000000 -1.000000 0.000000
vn 0.000000 -1.000000 -0.000000
vn 0.000000 -1.000000 -0.000000
vn 0.000000 -1.000000 -0.000000
vn 0.000000 -1.000000 0.000000
vn 1.000000 0.000000 0.000000
vn 1.000000 0.000000 0.000000
vn 1.000000 0.000000 0.000000
vn 1.000000 0.000000 0.000000
vn -1.000000 0.000000 0.000000
vn -1.000000 0.000000 0.000000
vn -1.000000 0.000000 0.000000
vn -1.000000 -0.000000 -0.000000
vn -1.000000 -0.000000 -0.000000
vn 0.000000 0.000000 1.000000
vn 0.000000 0.000000 1.000000
vn 0.000000 0.000000 -1.000000
vn 0.000000 0.000000 -1.000000
vn -1.000000 0.000000 0.000000
vn -1.000000 0.000000 0.000000
vn -1.000000 0.000000 0.000000
vn -1.000000 0.000000 0.000000
vn -1.000000 0.000000 0.000000
s 1
g pCube1
usemtl lambert6SG
f 7/9/9 15/23/10 9/11/11
f 9/11/11 15/23/10 16/25/12
s 2
f 17/26/13 18/27/14 11/13/15
f 11/13/15 18/27/14 13/15/16
s 3
usemtl lambert2SG
f 13/15/17 18/27/18 20/30/19
f 14/16/20 8/18/21 18/27/18
f 8/18/21 15/24/22 18/27/18
f 18/27/18 15/24/22 20/30/19
f 20/30/19 15/24/22 22/33/23
f 15/24/22 7/17/24 22/33/23
s 5
usemtl lambert6SG
f 8/10/25 14/19/26 10/12/27
f 10/12/27 14/19/26 12/20/28
s 6
f 13/21/29 20/29/30 11/22/31
f 20/29/30 23/34/32 11/22/31
f 23/34/32 19/28/33 11/22/31
s 1
f 16/25/12 15/23/10 10/12/34
f 10/12/34 15/23/10 8/10/35
s 2
f 17/26/13 12/14/36 18/27/14
f 18/27/14 12/14/36 14/16/37
s 6
usemtl lambert2SG
f 23/34/32 24/35/38 19/28/33
f 19/28/33 24/35/38 21/31/39
o 148
usemtl lambert6SG
f 21/31/39 24/35/38 9/11/40
f 9/11/40 24/35/38 7/9/41
f 24/35/38 22/32/42 7/9/41
